<svg width="38" height="25" viewBox="0 0 38 25" fill="none" xmlns="http://www.w3.org/2000/svg">
<path d="M23.912 12.2449C23.912 18.5849 18.7724 23.7245 12.4324 23.7245C6.0925 23.7245 0.952881 18.5849 0.952881 12.2449C0.952881 5.90491 6.0925 0.76532 12.4324 0.76532C18.7724 0.76532 23.912 5.90491 23.912 12.2449Z" fill="#6877FF"/>
<path d="M36.2921 12.2449C36.2921 18.5849 31.2028 23.7245 24.925 23.7245C18.6472 23.7245 13.5579 18.5849 13.5579 12.2449C13.5579 5.90491 18.6472 0.76532 24.925 0.76532C31.2028 0.76532 36.2921 5.90491 36.2921 12.2449Z" fill="#FF7917"/>
<path d="M18.7095 21.8579C21.8423 19.8081 23.9121 16.2683 23.9121 12.2449C23.9121 8.22162 21.8423 4.68169 18.7095 2.6319C15.6074 4.68169 13.5579 8.22162 13.5579 12.2449C13.5579 16.2683 15.6074 19.8081 18.7095 21.8579Z" fill="#5D2C02"/>
</svg>
