<svg width="172" height="25" viewBox="0 0 172 25" fill="none" xmlns="http://www.w3.org/2000/svg">
<path d="M23.912 12.2449C23.912 18.5849 18.7724 23.7245 12.4324 23.7245C6.0925 23.7245 0.952881 18.5849 0.952881 12.2449C0.952881 5.90491 6.0925 0.76532 12.4324 0.76532C18.7724 0.76532 23.912 5.90491 23.912 12.2449Z" fill="#6877FF"/>
<path d="M36.2921 12.2449C36.2921 18.5849 31.2028 23.7245 24.925 23.7245C18.6472 23.7245 13.5579 18.5849 13.5579 12.2449C13.5579 5.90491 18.6472 0.76532 24.925 0.76532C31.2028 0.76532 36.2921 5.90491 36.2921 12.2449Z" fill="#FF7917"/>
<path d="M18.7095 21.8579C21.8423 19.8081 23.9121 16.2683 23.9121 12.2449C23.9121 8.22162 21.8423 4.68169 18.7095 2.6319C15.6074 4.68169 13.5579 8.22162 13.5579 12.2449C13.5579 16.2683 15.6074 19.8081 18.7095 21.8579Z" fill="#5D2C02"/>
<path d="M51.3569 18.5V13.924L51.9489 15.492L47.0209 7.3H49.7729L53.5489 13.588H51.9649L55.7569 7.3H58.3009L53.3729 15.492L53.9489 13.924V18.5H51.3569ZM61.4866 18.5V9.412H57.9026V7.3H67.6626V9.412H64.0786V18.5H61.4866ZM75.9085 18.5V9.412H72.3245V7.3H82.0845V9.412H78.5005V18.5H75.9085ZM88.5351 9.764C89.2178 9.764 89.8258 9.90267 90.3591 10.18C90.9031 10.4467 91.3298 10.8627 91.6391 11.428C91.9485 11.9827 92.1031 12.6973 92.1031 13.572V18.5H89.6071V13.956C89.6071 13.2627 89.4525 12.7507 89.1431 12.42C88.8445 12.0893 88.4178 11.924 87.8631 11.924C87.4685 11.924 87.1111 12.0093 86.7911 12.18C86.4818 12.34 86.2365 12.5907 86.0551 12.932C85.8845 13.2733 85.7991 13.7107 85.7991 14.244V18.5H83.3031V6.628H85.7991V12.276L85.2391 11.556C85.5485 10.98 85.9911 10.5373 86.5671 10.228C87.1431 9.91867 87.7991 9.764 88.5351 9.764ZM97.9976 18.628C97.283 18.628 96.643 18.4893 96.0776 18.212C95.523 17.9347 95.091 17.5133 94.7816 16.948C94.4723 16.372 94.3176 15.6413 94.3176 14.756V9.892H96.8136V14.388C96.8136 15.1027 96.963 15.6307 97.2616 15.972C97.571 16.3027 98.003 16.468 98.5576 16.468C98.9416 16.468 99.283 16.388 99.5816 16.228C99.8803 16.0573 100.115 15.8013 100.286 15.46C100.456 15.108 100.542 14.6707 100.542 14.148V9.892H103.038V18.5H100.67V16.132L101.102 16.82C100.814 17.4173 100.387 17.8707 99.8216 18.18C99.267 18.4787 98.659 18.628 97.9976 18.628ZM116.374 9.764C117.057 9.764 117.659 9.90267 118.182 10.18C118.715 10.4467 119.131 10.8627 119.43 11.428C119.739 11.9827 119.894 12.6973 119.894 13.572V18.5H117.398V13.956C117.398 13.2627 117.254 12.7507 116.966 12.42C116.678 12.0893 116.273 11.924 115.75 11.924C115.387 11.924 115.062 12.0093 114.774 12.18C114.486 12.34 114.262 12.5853 114.102 12.916C113.942 13.2467 113.862 13.668 113.862 14.18V18.5H111.366V13.956C111.366 13.2627 111.222 12.7507 110.934 12.42C110.657 12.0893 110.257 11.924 109.734 11.924C109.371 11.924 109.046 12.0093 108.758 12.18C108.47 12.34 108.246 12.5853 108.086 12.916C107.926 13.2467 107.846 13.668 107.846 14.18V18.5H105.35V9.892H107.734V12.244L107.286 11.556C107.585 10.9693 108.006 10.5267 108.55 10.228C109.105 9.91867 109.734 9.764 110.438 9.764C111.227 9.764 111.915 9.96667 112.502 10.372C113.099 10.7667 113.494 11.3747 113.686 12.196L112.806 11.956C113.094 11.284 113.553 10.7507 114.182 10.356C114.822 9.96133 115.553 9.764 116.374 9.764ZM127.219 18.628C126.462 18.628 125.811 18.468 125.267 18.148C124.723 17.828 124.307 17.3427 124.019 16.692C123.731 16.0307 123.587 15.1987 123.587 14.196C123.587 13.1827 123.737 12.3507 124.035 11.7C124.345 11.0493 124.771 10.564 125.315 10.244C125.859 9.924 126.494 9.764 127.219 9.764C128.03 9.764 128.755 9.94533 129.395 10.308C130.046 10.6707 130.558 11.1827 130.931 11.844C131.315 12.5053 131.507 13.2893 131.507 14.196C131.507 15.092 131.315 15.8707 130.931 16.532C130.558 17.1933 130.046 17.7107 129.395 18.084C128.755 18.4467 128.03 18.628 127.219 18.628ZM122.131 18.5V6.628H124.627V11.636L124.467 14.18L124.515 16.74V18.5H122.131ZM126.787 16.58C127.203 16.58 127.571 16.484 127.891 16.292C128.222 16.1 128.483 15.828 128.675 15.476C128.878 15.1133 128.979 14.6867 128.979 14.196C128.979 13.6947 128.878 13.268 128.675 12.916C128.483 12.564 128.222 12.292 127.891 12.1C127.571 11.908 127.203 11.812 126.787 11.812C126.371 11.812 125.998 11.908 125.667 12.1C125.337 12.292 125.075 12.564 124.883 12.916C124.691 13.268 124.595 13.6947 124.595 14.196C124.595 14.6867 124.691 15.1133 124.883 15.476C125.075 15.828 125.337 16.1 125.667 16.292C125.998 16.484 126.371 16.58 126.787 16.58ZM138.41 9.764C139.093 9.764 139.701 9.90267 140.234 10.18C140.778 10.4467 141.205 10.8627 141.514 11.428C141.823 11.9827 141.978 12.6973 141.978 13.572V18.5H139.482V13.956C139.482 13.2627 139.327 12.7507 139.018 12.42C138.719 12.0893 138.293 11.924 137.738 11.924C137.343 11.924 136.986 12.0093 136.666 12.18C136.357 12.34 136.111 12.5907 135.93 12.932C135.759 13.2733 135.674 13.7107 135.674 14.244V18.5H133.178V9.892H135.562V12.276L135.114 11.556C135.423 10.98 135.866 10.5373 136.442 10.228C137.018 9.91867 137.674 9.764 138.41 9.764ZM149.521 18.5V16.82L149.361 16.452V13.444C149.361 12.9107 149.195 12.4947 148.865 12.196C148.545 11.8973 148.049 11.748 147.377 11.748C146.918 11.748 146.465 11.8227 146.017 11.972C145.579 12.1107 145.206 12.3027 144.897 12.548L144.001 10.804C144.47 10.4733 145.035 10.2173 145.697 10.036C146.358 9.85467 147.03 9.764 147.713 9.764C149.025 9.764 150.043 10.0733 150.769 10.692C151.494 11.3107 151.857 12.276 151.857 13.588V18.5H149.521ZM146.897 18.628C146.225 18.628 145.649 18.516 145.169 18.292C144.689 18.0573 144.321 17.7427 144.065 17.348C143.809 16.9533 143.681 16.5107 143.681 16.02C143.681 15.508 143.803 15.06 144.049 14.676C144.305 14.292 144.705 13.9933 145.249 13.78C145.793 13.556 146.502 13.444 147.377 13.444H149.665V14.9H147.649C147.062 14.9 146.657 14.996 146.433 15.188C146.219 15.38 146.113 15.62 146.113 15.908C146.113 16.228 146.235 16.484 146.481 16.676C146.737 16.8573 147.083 16.948 147.521 16.948C147.937 16.948 148.31 16.852 148.641 16.66C148.971 16.4573 149.211 16.164 149.361 15.78L149.745 16.932C149.563 17.4867 149.233 17.908 148.753 18.196C148.273 18.484 147.654 18.628 146.897 18.628ZM154.116 18.5V9.892H156.612V18.5H154.116ZM155.364 8.692C154.905 8.692 154.532 8.55867 154.244 8.292C153.956 8.02533 153.812 7.69467 153.812 7.3C153.812 6.90533 153.956 6.57467 154.244 6.308C154.532 6.04133 154.905 5.908 155.364 5.908C155.822 5.908 156.196 6.036 156.484 6.292C156.772 6.53733 156.916 6.85733 156.916 7.252C156.916 7.668 156.772 8.01467 156.484 8.292C156.206 8.55867 155.833 8.692 155.364 8.692ZM158.928 18.5V6.628H161.424V18.5H158.928ZM166.637 18.628C165.901 18.628 165.191 18.5427 164.509 18.372C163.837 18.1907 163.303 17.9667 162.909 17.7L163.741 15.908C164.135 16.1533 164.599 16.356 165.133 16.516C165.677 16.6653 166.21 16.74 166.733 16.74C167.309 16.74 167.714 16.6707 167.949 16.532C168.194 16.3933 168.317 16.2013 168.317 15.956C168.317 15.7533 168.221 15.604 168.029 15.508C167.847 15.4013 167.602 15.3213 167.293 15.268C166.983 15.2147 166.642 15.1613 166.269 15.108C165.906 15.0547 165.538 14.9853 165.165 14.9C164.791 14.804 164.45 14.6653 164.141 14.484C163.831 14.3027 163.581 14.0573 163.389 13.748C163.207 13.4387 163.117 13.0387 163.117 12.548C163.117 12.004 163.271 11.524 163.581 11.108C163.901 10.692 164.359 10.3667 164.957 10.132C165.554 9.88667 166.269 9.764 167.101 9.764C167.687 9.764 168.285 9.828 168.893 9.956C169.501 10.084 170.007 10.2707 170.413 10.516L169.581 12.292C169.165 12.0467 168.743 11.8813 168.317 11.796C167.901 11.7 167.495 11.652 167.101 11.652C166.546 11.652 166.141 11.7267 165.885 11.876C165.629 12.0253 165.501 12.2173 165.501 12.452C165.501 12.6653 165.591 12.8253 165.773 12.932C165.965 13.0387 166.215 13.124 166.525 13.188C166.834 13.252 167.17 13.3107 167.533 13.364C167.906 13.4067 168.279 13.476 168.653 13.572C169.026 13.668 169.362 13.8067 169.661 13.988C169.97 14.1587 170.221 14.3987 170.413 14.708C170.605 15.0067 170.701 15.4013 170.701 15.892C170.701 16.4253 170.541 16.9 170.221 17.316C169.901 17.7213 169.437 18.0413 168.829 18.276C168.231 18.5107 167.501 18.628 166.637 18.628Z" fill="black"/>
</svg>
